<svg width="256" height="256" viewBox="0 0 256 256" fill="none" xmlns="http://www.w3.org/2000/svg">
  <rect x="28" y="28" width="200" height="200" rx="56" fill="url(#bg)"/>
  <rect x="28.75" y="28.75" width="198.5" height="198.5" rx="55.25" stroke="url(#stroke)" stroke-opacity="0.72" stroke-width="1.5"/>
  <path d="M77 164C90.241 147.551 101.537 140.079 113.672 140.079C126.457 140.079 136.165 149.419 146.254 149.419C156.766 149.419 166.695 138.62 179 113" stroke="url(#line)" stroke-width="14" stroke-linecap="round" stroke-linejoin="round"/>
  <path d="M165.5 113H179V126.5" stroke="url(#line)" stroke-width="14" stroke-linecap="round" stroke-linejoin="round"/>
  <path d="M98 88.5C112.91 73.5898 137.09 73.5898 152 88.5" stroke="url(#halo)" stroke-width="10" stroke-linecap="round"/>
  <path d="M85 75.5C107.091 53.4086 142.909 53.4086 165 75.5" stroke="url(#haloSoft)" stroke-width="8" stroke-linecap="round" opacity="0.72"/>
  <circle cx="128" cy="128" r="93" stroke="white" stroke-opacity="0.04" stroke-width="2"/>
  <defs>
    <linearGradient id="bg" x1="48" y1="44" x2="214" y2="220" gradientUnits="userSpaceOnUse">
      <stop stop-color="#131722"/>
      <stop offset="0.5" stop-color="#0D1018"/>
      <stop offset="1" stop-color="#090B12"/>
    </linearGradient>
    <linearGradient id="stroke" x1="44" y1="40" x2="216" y2="216" gradientUnits="userSpaceOnUse">
      <stop stop-color="#F5F7FF" stop-opacity="0.45"/>
      <stop offset="1" stop-color="#6E7BFF" stop-opacity="0.35"/>
    </linearGradient>
    <linearGradient id="line" x1="77" y1="164" x2="184.5" y2="105.5" gradientUnits="userSpaceOnUse">
      <stop stop-color="#F8FAFF"/>
      <stop offset="0.5" stop-color="#C7D2FE"/>
      <stop offset="1" stop-color="#8B9BFF"/>
    </linearGradient>
    <linearGradient id="halo" x1="98" y1="81" x2="152" y2="96" gradientUnits="userSpaceOnUse">
      <stop stop-color="#CDD6FF"/>
      <stop offset="1" stop-color="#FFFFFF"/>
    </linearGradient>
    <linearGradient id="haloSoft" x1="85" y1="62" x2="165" y2="91" gradientUnits="userSpaceOnUse">
      <stop stop-color="#8EA0FF"/>
      <stop offset="1" stop-color="#EEF2FF"/>
    </linearGradient>
  </defs>
</svg>
